<svg width="23" height="23" viewBox="0 0 23 23" fill="none" xmlns="http://www.w3.org/2000/svg">
<g clip-path="url(#clip0_4209_11378)">
<path d="M22.4106 14.3855C20.9174 20.3744 14.8509 24.0191 8.86061 22.5257C2.87282 21.0326 -0.77233 14.9664 0.721557 8.978C2.21413 2.98842 8.28062 -0.65659 14.2691 0.836473C20.2589 2.32954 23.9039 8.39638 22.4105 14.3856L22.4106 14.3855H22.4106Z" fill="#F7931A"/>
<path d="M16.4973 10.0883C16.7198 8.60055 15.587 7.80085 14.0381 7.26737L14.5406 5.25214L13.3137 4.94647L12.8245 6.90864C12.502 6.8282 12.1708 6.75242 11.8415 6.67728L12.3343 4.70216L11.1082 4.39648L10.6054 6.41106C10.3385 6.3503 10.0763 6.29024 9.82199 6.22697L9.82341 6.22063L8.13153 5.79819L7.80516 7.10841C7.80516 7.10841 8.7154 7.31704 8.69622 7.32988C9.19303 7.45387 9.28288 7.78271 9.26796 8.04335L8.69556 10.3392C8.72977 10.3479 8.77415 10.3604 8.82311 10.3801C8.78218 10.3699 8.73863 10.3588 8.69343 10.348L7.89113 13.5641C7.83041 13.7151 7.6763 13.9416 7.32895 13.8556C7.34125 13.8734 6.43724 13.6331 6.43724 13.6331L5.82812 15.0373L7.4247 15.4352C7.72172 15.5097 8.01278 15.5876 8.29941 15.6609L7.79172 17.6993L9.01717 18.0049L9.51994 15.9882C9.85472 16.0791 10.1796 16.1629 10.4977 16.2419L9.99659 18.2491L11.2235 18.5548L11.7312 16.5203C13.8232 16.9162 15.3963 16.7566 16.0584 14.8645C16.592 13.3412 16.0319 12.4625 14.9312 11.8895C15.7329 11.7047 16.3367 11.1775 16.4977 10.0884L16.4973 10.0881L16.4973 10.0883ZM13.6941 14.0185C13.315 15.5418 10.7499 14.7184 9.91823 14.5119L10.5919 11.8114C11.4235 12.019 14.0904 12.4298 13.6942 14.0185H13.6941ZM14.0736 10.0662C13.7277 11.4518 11.5927 10.7479 10.9002 10.5752L11.511 8.12608C12.2035 8.2987 14.4339 8.62088 14.0737 10.0662H14.0736Z" fill="white"/>
</g>
<defs>
<clipPath id="clip0_4209_11378">
<rect width="22.3584" height="22.3584" fill="white" transform="translate(0.386719 0.501953)"/>
</clipPath>
</defs>
</svg>
