<svg width="24" height="24" viewBox="0 0 24 24" fill="none" xmlns="http://www.w3.org/2000/svg">
<path d="M12.122 23.2967C18.2969 23.2967 23.3026 18.291 23.3026 12.1161C23.3026 5.94127 18.2969 0.935547 12.122 0.935547C5.94713 0.935547 0.941406 5.94127 0.941406 12.1161C0.941406 18.291 5.94713 23.2967 12.122 23.2967Z" fill="#627EEA"/>
<path d="M12.4688 3.73047V9.92871L17.7076 12.2696L12.4688 3.73047Z" fill="white" fill-opacity="0.602"/>
<path d="M12.4661 3.73047L7.22656 12.2696L12.4661 9.92871V3.73047Z" fill="white"/>
<path d="M12.4688 16.2853V20.4969L17.7111 13.2441L12.4688 16.2853Z" fill="white" fill-opacity="0.602"/>
<path d="M12.4661 20.4969V16.2846L7.22656 13.2441L12.4661 20.4969Z" fill="white"/>
<path d="M12.4688 15.311L17.7076 12.2692L12.4688 9.92969V15.311Z" fill="white" fill-opacity="0.2"/>
<path d="M7.22656 12.2692L12.4661 15.311V9.92969L7.22656 12.2692Z" fill="white" fill-opacity="0.602"/>
</svg>
