<svg width="22" height="20" viewBox="0 0 22 20" fill="none" xmlns="http://www.w3.org/2000/svg">
<path fill-rule="evenodd" clip-rule="evenodd" d="M5.76327 9.97662C5.95784 10.1712 6.06715 10.4352 6.06715 10.7104C6.06715 10.9856 5.95784 11.2495 5.76327 11.4441L3.9024 13.305H13.8513C14.1266 13.305 14.3905 13.4144 14.5852 13.609C14.7798 13.8036 14.8892 14.0676 14.8892 14.3429C14.8892 14.6181 14.7798 14.8821 14.5852 15.0768C14.3905 15.2714 14.1266 15.3807 13.8513 15.3807H3.9024L5.76327 17.2416C5.8624 17.3374 5.94147 17.4519 5.99586 17.5785C6.05025 17.7051 6.07888 17.8413 6.08008 17.9791C6.08128 18.1169 6.05502 18.2536 6.00284 18.3811C5.95065 18.5087 5.87359 18.6246 5.77614 18.722C5.67869 18.8195 5.56281 18.8965 5.43526 18.9487C5.30772 19.0009 5.17105 19.0271 5.03325 19.026C4.89544 19.0248 4.75925 18.9961 4.63263 18.9417C4.50601 18.8873 4.39148 18.8083 4.29575 18.7091L0.663245 15.0766C0.468677 14.882 0.359375 14.6181 0.359375 14.3429C0.359375 14.0677 0.468677 13.8037 0.663245 13.6091L4.29575 9.97662C4.49037 9.78205 4.75431 9.67275 5.02951 9.67275C5.30471 9.67275 5.56865 9.78205 5.76327 9.97662ZM15.7122 0.635902C15.9068 0.441333 16.1707 0.332031 16.4459 0.332031C16.7211 0.332031 16.9851 0.441333 17.1797 0.635902L20.8122 4.2684C21.0068 4.46303 21.1161 4.72696 21.1161 5.00217C21.1161 5.27737 21.0068 5.5413 20.8122 5.73593L17.1797 9.36843C16.984 9.55749 16.7218 9.6621 16.4497 9.65973C16.1776 9.65737 15.9172 9.54822 15.7248 9.35579C15.5324 9.16336 15.4232 8.90306 15.4209 8.63093C15.4185 8.35881 15.5231 8.09664 15.7122 7.9009L17.5731 6.04002H7.62415C7.3489 6.04002 7.08491 5.93068 6.89028 5.73604C6.69564 5.54141 6.5863 5.27742 6.5863 5.00217C6.5863 4.72691 6.69564 4.46293 6.89028 4.26829C7.08491 4.07365 7.3489 3.96431 7.62415 3.96431H17.5731L15.7122 2.10343C15.5176 1.9088 15.4083 1.64487 15.4083 1.36967C15.4083 1.09446 15.5176 0.830529 15.7122 0.635902Z" fill="#0B0A0A"/>
</svg>
