<svg width="22" height="20" viewBox="0 0 22 20" fill="none" xmlns="http://www.w3.org/2000/svg">
<path fill-rule="evenodd" clip-rule="evenodd" d="M6.07968 9.97662C6.27425 10.1712 6.38355 10.4352 6.38355 10.7104C6.38355 10.9856 6.27425 11.2495 6.07968 11.4441L4.2188 13.305H14.1677C14.443 13.305 14.7069 13.4144 14.9016 13.609C15.0962 13.8036 15.2056 14.0676 15.2056 14.3429C15.2056 14.6181 15.0962 14.8821 14.9016 15.0768C14.7069 15.2714 14.443 15.3807 14.1677 15.3807H4.2188L6.07968 17.2416C6.17881 17.3374 6.25787 17.4519 6.31227 17.5785C6.36666 17.7051 6.39529 17.8413 6.39649 17.9791C6.39769 18.1169 6.37143 18.2536 6.31924 18.3811C6.26706 18.5087 6.18999 18.6246 6.09255 18.722C5.9951 18.8195 5.87922 18.8965 5.75167 18.9487C5.62412 19.0009 5.48746 19.0271 5.34965 19.026C5.21185 19.0248 5.07566 18.9961 4.94904 18.9417C4.82241 18.8873 4.70789 18.8083 4.61215 18.7091L0.979652 15.0766C0.785083 14.882 0.675781 14.6181 0.675781 14.3429C0.675781 14.0677 0.785083 13.8037 0.979652 13.6091L4.61215 9.97662C4.80678 9.78205 5.07071 9.67275 5.34592 9.67275C5.62112 9.67275 5.88505 9.78205 6.07968 9.97662ZM16.0286 0.635902C16.2232 0.441333 16.4871 0.332031 16.7623 0.332031C17.0375 0.332031 17.3015 0.441333 17.4961 0.635902L21.1286 4.2684C21.3232 4.46303 21.4325 4.72696 21.4325 5.00217C21.4325 5.27737 21.3232 5.5413 21.1286 5.73593L17.4961 9.36843C17.3004 9.55749 17.0382 9.6621 16.7661 9.65973C16.494 9.65737 16.2336 9.54822 16.0412 9.35579C15.8488 9.16336 15.7396 8.90306 15.7373 8.63093C15.7349 8.35881 15.8395 8.09664 16.0286 7.9009L17.8895 6.04002H7.94056C7.6653 6.04002 7.40132 5.93068 7.20668 5.73604C7.01205 5.54141 6.9027 5.27742 6.9027 5.00217C6.9027 4.72691 7.01205 4.46293 7.20668 4.26829C7.40132 4.07365 7.6653 3.96431 7.94056 3.96431H17.8895L16.0286 2.10343C15.834 1.9088 15.7247 1.64487 15.7247 1.36967C15.7247 1.09446 15.834 0.830529 16.0286 0.635902Z" fill="#626262"/>
</svg>
