<svg width="24" height="21" viewBox="0 0 24 21" fill="none" xmlns="http://www.w3.org/2000/svg">
<path fill-rule="evenodd" clip-rule="evenodd" d="M5.11195 0.322337L0.928913 9.10702C0.912186 9.13885 0.906425 9.17531 0.912523 9.21074C0.918621 9.24618 0.936237 9.27861 0.962641 9.30302L12.2544 20.1286C12.2869 20.1579 12.3291 20.1741 12.3729 20.1741C12.4166 20.1741 12.4588 20.1579 12.4913 20.1286L23.7898 9.30302C23.816 9.27844 23.8334 9.24602 23.8395 9.21066C23.8455 9.1753 23.84 9.13892 23.8235 9.10702L19.6405 0.322337C19.6294 0.291782 19.6089 0.265514 19.582 0.247277C19.5551 0.229041 19.5231 0.219767 19.4906 0.220778H5.26035C5.22828 0.221655 5.19713 0.231682 5.17057 0.249675C5.14402 0.267669 5.12315 0.29288 5.11045 0.322337H5.11195Z" fill="#50AF95"/>
<path fill-rule="evenodd" clip-rule="evenodd" d="M13.8309 10.0058C13.7499 10.0125 13.3309 10.0395 12.3982 10.0395C11.655 10.0395 11.1277 10.0193 10.9385 10.0058C8.06673 9.87762 5.92462 9.37732 5.92462 8.78258C5.92462 8.18784 8.06673 7.68117 10.9385 7.553V9.50586C11.1259 9.51935 11.6618 9.55308 12.4049 9.55308C13.2968 9.55308 13.7428 9.51261 13.8241 9.50586V7.553C16.6891 7.68117 18.8312 8.18147 18.8312 8.77584C18.8312 9.3702 16.6951 9.87762 13.8309 10.0058ZM13.8309 7.35701V5.60652H17.8314V2.9375H6.93834V5.60652H10.9385V7.35701C7.68822 7.50691 5.24219 8.14737 5.24219 8.92462C5.24219 9.70186 7.68822 10.3371 10.9385 10.4922V16.0945H13.8309V10.4922C17.0744 10.3423 19.514 9.70149 19.514 8.93136C19.514 8.16124 17.0744 7.50541 13.8309 7.35738V7.35701Z" fill="white"/>
</svg>
